:SAMPLES-PER-SECOND 30
:FULLY-SPECIFIED
:DEGREES
31
root  -53.5031 33.4335 -1.35756 -24.6475 84.7128 -16.9217
RightUpLeg  -39.8351 -3.83834 4.70648
RightLeg  59.9521 12.99 4.77266
RightFoot  -17.3767 0.100244 2.56067
RightToes  2.85217e-009 -3.18055e-015 8.94531e-016
Spine  32.4011 -1.32928 2.45714
Spine1  7.25603 0.902797 -4.9371
HEad  0.554136 0.664339 1.80676
LeftShoulder1  0 -2.69403e-036 -1.28585e-037
LeftArm  -5.86862 -21.1201 -82.8207
LeftForeArm  -144.394 -54.0124 165.906
LeftHand  0.787699 6.56546 13.7782
RightShoulder  -2.48481e-017 0 -8.08114e-019
RightArm  -3.69342 10.9946 82.5478
RightForeArm  -106.271 53.8828 -143.752
RightHand  2.6646 -14.9972 -15.2508
LeftUpLeg  -37.8615 -1.17194 -2.51218
LeftLeg  56.3666 -6.48763 8.81605
LeftFoot  -11.8185 -0.0865393 3.74378
LeftToes  -3.29237e-010 -4.9359e-011 -7.59376e-011
32
root  -53.1732 32.6423 -1.31566 -28.1587 85.0018 -20.206
RightUpLeg  -42.0751 -2.83031 4.73925
RightLeg  60.9465 11.5489 2.05295
RightFoot  -16.5444 0.035024 0.876838
RightToes  2.85217e-009 -3.18055e-015 8.94531e-016
Spine  34.7375 -1.54177 2.76124
Spine1  7.19869 0.883583 -4.94304
HEad  -0.828282 0.360496 1.7718
LeftShoulder1  0 -2.69403e-036 -1.28585e-037
LeftArm  -5.55679 -22.9554 -83.1438
LeftForeArm  -143.772 -53.7435 166.092
LeftHand  0.717747 6.32005 14.2545
RightShoulder  -2.48481e-017 0 -8.08114e-019
RightArm  -3.5877 14.2782 82.0373
RightForeArm  -108.515 52.78 -146.118
RightHand  2.84682 -15.4905 -15.9786
LeftUpLeg  -39.773 -1.69934 -2.43087
LeftLeg  61.0145 -7.23085 9.64426
LeftFoot  -14.5601 -0.00987186 3.27236
LeftToes  -3.29237e-010 -4.9359e-011 -7.59376e-011
33
root  -52.838 31.7257 -1.24712 -30.4226 85.7787 -22.4871
RightUpLeg  -44.6507 -2.56522 4.47824
RightLeg  64.5229 10.3223 -0.609407
RightFoot  -16.2031 -0.0206925 -0.909911
RightToes  2.85217e-009 -3.18055e-015 8.94531e-016
Spine  36.675 -1.82065 2.80323
Spine1  7.0902 0.725487 -4.99989
HEad  -2.09107 0.00362974 1.96106
LeftShoulder1  0 -2.69403e-036 -1.28585e-037
LeftArm  -5.30509 -24.824 -83.5535
LeftForeArm  -143.418 -53.6189 166.172
LeftHand  0.647913 6.09209 14.948
RightShoulder  -2.48481e-017 0 -8.08114e-019
RightArm  -3.42387 17.0677 81.7142
RightForeArm  -109.995 51.8235 -147.962
RightHand  3.04467 -16.019 -16.7356
LeftUpLeg  -42.1583 -2.45431 -2.72865
LeftLeg  65.9618 -8.22205 10.2018
LeftFoot  -17.1347 0.038315 2.73997
LeftToes  -3.29237e-010 -4.9359e-011 -7.59376e-011
34
root  -52.5032 30.6914 -1.14825 -31.5106 86.9781 -23.6478
RightUpLeg  -47.4714 -2.76613 3.91822
RightLeg  69.9694 10.1002 -1.75871
RightFoot  -17.6738 -0.061532 -1.6902
RightToes  2.85217e-009 -3.18055e-015 8.94531e-016
Spine  38.3598 -2.11601 2.60085
Spine1  7.03096 0.485463 -5.10764
HEad  -3.26686 -0.522697 2.36322
LeftShoulder1  0 -2.69403e-036 -1.28585e-037
LeftArm  -4.97916 -26.8342 -84.1156
LeftForeArm  -142.863 -53.6453 166.103
LeftHand  0.583291 5.87861 15.3762
RightShoulder  -2.48481e-017 0 -8.08114e-019
RightArm  -3.42819 19.5672 81.4066
RightForeArm  -110.129 51.0771 -149.23
RightHand  3.10374 -16.0224 -17.3777
LeftUpLeg  -44.788 -3.23443 -3.35651
LeftLeg  71.2284 -9.44308 10.2992
LeftFoot  -19.5673 0.0625145 2.23763
LeftToes  -3.29237e-010 -4.9359e-011 -7.59376e-011
35
root  -52.1778 29.5577 -1.01742 -32.8343 88.1009 -24.7416
RightUpLeg  -50.1355 -3.04534 3.41059
RightLeg  75.9053 10.3324 -2.11863
RightFoot  -20.3551 -0.102825 -1.74646
RightToes  2.85217e-009 -3.18055e-015 8.94531e-016
Spine  40.1512 -2.23988 2.33526
Spine1  7.08367 0.358494 -5.06917
HEad  -4.4301 -1.20846 2.82081
LeftShoulder1  0 -2.69403e-036 -1.28585e-037
LeftArm  -4.56982 -28.8468 -84.8497
LeftForeArm  -142.07 -53.7547 165.94
LeftHand  0.535902 5.7123 15.4431
RightShoulder  -2.48481e-017 0 -8.08114e-019
RightArm  -3.64017 21.8659 81.0378
RightForeArm  -109.967 50.4481 -150.223
RightHand  3.13365 -15.9159 -18.0242
LeftUpLeg  -47.2294 -3.52279 -3.9772
LeftLeg  76.7356 -10.7208 10.1189
LeftFoot  -22.232 0.0872262 1.9779
LeftToes  -3.29237e-010 -4.9359e-011 -7.59376e-011
36
root  -51.8585 28.3512 -0.860567 -40.3985 88.9122 -31.6577
RightUpLeg  -52.4292 -3.37269 3.23893
RightLeg  81.6606 10.5986 -2.70539
RightFoot  -23.029 -0.144078 -1.75368
RightToes  2.85217e-009 -3.18055e-015 8.94531e-016
Spine  42.2218 -2.16612 2.14215
Spine1  7.10555 0.378228 -4.78861
HEad  -5.44454 -1.82034 3.18003
LeftShoulder1  0 -2.69403e-036 -1.28585e-037
LeftArm  -4.20645 -30.6318 -85.6055
LeftForeArm  -141.478 -53.8165 165.835
LeftHand  0.524604 5.67516 15.4982
RightShoulder  -2.48481e-017 0 -8.08114e-019
RightArm  -3.68304 23.8194 80.854
RightForeArm  -109.235 50.0186 -150.823
RightHand  3.16419 -15.8483 -18.5702
LeftUpLeg  -49.3292 -3.21645 -4.31354
LeftLeg  82.3737 -11.9518 9.76641
LeftFoot  -25.0313 0.123045 1.93407
LeftToes  -3.29237e-010 -4.9359e-011 -7.59376e-011
37
root  -51.5356 27.0862 -0.68424 -93.0578 89.3345 -83.4102
RightUpLeg  -54.4326 -4.0177 3.32951
RightLeg  87.4045 10.9634 -3.34423
RightFoot  -25.4693 -0.212429 -2.04091
RightToes  2.85217e-009 -3.18055e-015 8.94531e-016
Spine  44.3185 -2.11792 2.04718
Spine1  7.13138 0.371556 -4.43757
HEad  -6.23032 -2.22264 3.46484
LeftShoulder1  0 -2.69403e-036 -1.28585e-037
LeftArm  -3.83559 -32.1617 -86.2655
LeftForeArm  -140.94 -53.7646 165.836
LeftHand  0.536338 5.72155 15.5712
RightShoulder  -2.48481e-017 0 -8.08114e-019
RightArm  -3.49557 25.3418 80.9448
RightForeArm  -108.115 49.6662 -151.258
RightHand  3.19315 -15.8391 -18.9236
LeftUpLeg  -51.3293 -2.72467 -4.3818
LeftLeg  88.2449 -13.1109 8.98419
LeftFoot  -27.3745 0.170243 2.04743
LeftToes  -3.29237e-010 -4.9359e-011 -7.59376e-011
38
root  -51.2067 25.7629 -0.489937 -155.333 88.8777 -144.684
RightUpLeg  -56.333 -5.00632 3.53026
RightLeg  93.2637 11.4464 -3.73738
RightFoot  -27.9095 -0.350215 -2.75754
RightToes  2.85217e-009 -3.18055e-015 8.94531e-016
Spine  46.1439 -2.22091 2.03331
Spine1  7.38824 0.259002 -4.19309
HEad  -6.95684 -2.515 3.8324
LeftShoulder1  0 -2.69403e-036 -1.28585e-037
LeftArm  -3.29569 -33.5808 -86.8033
LeftForeArm  -139.91 -53.6384 165.862
LeftHand  0.515163 5.63764 15.441
RightShoulder  -2.48481e-017 0 -8.08114e-019
RightArm  -3.36735 26.5703 81.0345
RightForeArm  -106.719 49.2638 -151.736
RightHand  3.19169 -15.7976 -19.0366
LeftUpLeg  -53.5323 -2.31364 -4.3481
LeftLeg  94.5056 -14.1147 7.72906
LeftFoot  -28.82 0.227096 2.30613
LeftToes  -3.29237e-010 -4.9359e-011 -7.59376e-011
39
root  -50.8716 24.3757 -0.281705 -174.859 87.9085 -163.135
RightUpLeg  -58.3007 -5.94375 3.7969
RightLeg  99.0951 12.0511 -4.2264
RightFoot  -30.1336 -0.533525 -3.62665
RightToes  2.85217e-009 -3.18055e-015 8.94531e-016
Spine  47.7532 -2.31801 2.02965
Spine1  7.85277 0.158954 -4.00782
HEad  -7.74528 -2.73296 4.2832
LeftShoulder1  0 -2.69403e-036 -1.28585e-037
LeftArm  -2.80718 -34.9532 -87.0771
LeftForeArm  -138.681 -53.4859 165.895
LeftHand  0.430102 5.3231 15.3155
RightShoulder  -2.48481e-017 0 -8.08114e-019
RightArm  -3.41939 27.6653 80.9079
RightForeArm  -105.161 48.8587 -152.195
RightHand  3.17538 -15.7333 -19.0545
LeftUpLeg  -55.9905 -1.88596 -4.31752
LeftLeg  101.051 -14.9161 6.42474
LeftFoot  -29.4619 0.253776 2.41747
LeftToes  -3.29237e-010 -4.9359e-011 -7.59376e-011
40
root  -50.5308 22.9339 -0.0757141 178.894 87.1697 -168.193
RightUpLeg  -60.4151 -6.48581 4.01943
RightLeg  104.939 12.8149 -4.82537
RightFoot  -31.7654 -0.634146 -3.92954
RightToes  2.85217e-009 -3.18055e-015 8.94531e-016
Spine  49.3338 -2.29795 1.97438
Spine1  8.28983 0.150685 -3.83266
HEad  -8.50268 -2.73826 4.56974
LeftShoulder1  0 -2.69403e-036 -1.28585e-037
LeftArm  -2.8078 -36.1749 -86.9336
LeftForeArm  -138.111 -53.3167 165.997
LeftHand  0.320015 4.94787 15.5612
RightShoulder  -2.48481e-017 0 -8.08114e-019
RightArm  -3.4346 28.626 80.7045
RightForeArm  -103.78 48.5285 -152.555
RightHand  3.15791 -15.6309 -19.1814
LeftUpLeg  -58.4888 -1.44287 -4.29497
LeftLeg  107.569 -15.5302 5.29551
LeftFoot  -29.7494 0.205789 2.04594
LeftToes  -3.29237e-010 -4.9359e-011 -7.59376e-011
41
root  -50.1949 21.4835 0.108648 173.634 86.5204 -172.161
RightUpLeg  -62.6128 -6.66966 4.07743
RightLeg  110.888 13.6165 -5.08804
RightFoot  -32.8051 -0.568083 -3.33841
RightToes  2.85217e-009 -3.18055e-015 8.94531e-016
Spine  50.8454 -2.32097 1.95099
Spine1  8.68732 0.166879 -3.81002
HEad  -9.19878 -2.54614 4.53315
LeftShoulder1  0 -2.69403e-036 -1.28585e-037
LeftArm  -3.26092 -37.1503 -86.4816
LeftForeArm  -138.167 -53.1563 166.142
LeftHand  0.239033 4.6905 15.9199
RightShoulder  -2.48481e-017 0 -8.08114e-019
RightArm  -3.2458 29.3792 80.6215
RightForeArm  -102.811 48.24 -152.886
RightHand  3.1137 -15.413 -19.3769
LeftUpLeg  -60.7805 -1.21747 -4.20897
LeftLeg  113.819 -15.877 4.1173
LeftFoot  -30.0933 0.120041 1.42689
LeftToes  -3.29237e-010 -4.9359e-011 -7.59376e-011
42
root  -49.8818 20.0857 0.267475 170.125 85.8063 -174.349
RightUpLeg  -64.7485 -6.69795 4.11756
RightLeg  116.63 14.406 -5.1218
RightFoot  -33.543 -0.407018 -2.32042
RightToes  2.85217e-009 -3.18055e-015 8.94531e-016
Spine  52.1834 -2.50419 2.05285
Spine1  9.1742 0.147179 -3.96941
HEad  -9.98451 -2.43914 4.35779
LeftShoulder1  0 -2.69403e-036 -1.28585e-037
LeftArm  -3.6871 -37.8118 -85.9969
LeftForeArm  -138.054 -53.0166 166.253
LeftHand  0.194652 4.52731 15.8593
RightShoulder  -2.48481e-017 0 -8.08114e-019
RightArm  -2.91913 29.9439 80.6515
RightForeArm  -101.996 47.9888 -153.173
RightHand  3.04696 -15.16 -19.4285
LeftUpLeg  -62.8182 -1.28676 -3.97017
LeftLeg  119.705 -15.882 2.801
LeftFoot  -30.6259 0.0689 1.05327
LeftToes  -3.29237e-010 -4.9359e-011 -7.59376e-011
43
root  -49.5997 18.7772 0.411212 168.185 85.1422 -174.998
RightUpLeg  -66.7078 -6.71706 4.37492
RightLeg  121.754 15.3413 -5.35554
RightFoot  -34.216 -0.249362 -1.39902
RightToes  2.85217e-009 -3.18055e-015 8.94531e-016
Spine  53.4754 -2.67922 2.15274
Spine1  9.65138 0.0905233 -3.99067
HEad  -10.9321 -2.60278 4.32001
LeftShoulder1  0 -2.69403e-036 -1.28585e-037
LeftArm  -3.92413 -38.2513 -85.5096
LeftForeArm  -137.659 -52.8141 166.396
LeftHand  0.169161 4.40158 15.5106
RightShoulder  -2.48481e-017 0 -8.08114e-019
RightArm  -2.52123 30.3991 80.7076
RightForeArm  -100.939 47.8723 -153.251
RightHand  3.00556 -15.0482 -19.3075
LeftUpLeg  -64.7206 -1.51593 -3.56938
LeftLeg  125.14 -15.6232 1.54319
LeftFoot  -31.1948 0.0402596 0.848217
LeftToes  -3.29237e-010 -4.9359e-011 -7.59376e-011
